# xmcd
#
# Track frame offsets:
#  150
#  15173
#  40812
#  56846
#  78197
#  98921
#  118329
#  137316
#  154414
#  178137
#  200779
#
# Disc length: 2885 seconds
#
# Revision: 0
# Processed by: cddbd v1.5.1PL2 Copyright (c) Steve Scherf et al.
# Submitted via: Collectorz.com_Music_Collector 6.9
#
DISCID=900b430b
DTITLE=Varios Artistas - Pasíon por lo Nuestro - Original
DYEAR=1900
DGENRE=
TTITLE0=Esa es la navidad
TTITLE1=Yo soy Cooperativista
TTITLE2=Pasion por lo nuestro
TTITLE3=Los Reyes en Navidad
TTITLE4=La casa sola
TTITLE5=Por aqui Venimos
TTITLE6=Yo creo en los Reyes
TTITLE7=El Amanaque
TTITLE8=Regalo de Reyes
TTITLE9=Al llegar Diciembre
TTITLE10=Nuestra Salvacion
EXTD=
EXTT0=
EXTT1=
EXTT2=
EXTT3=
EXTT4=
EXTT5=
EXTT6=
EXTT7=
EXTT8=
EXTT9=
EXTT10=
PLAYORDER=
